<mxfile host="app.diagrams.net" modified="2023-11-16T23:40:30.687Z" agent="Mozilla/5.0 (Windows NT 10.0; Win64; x64; rv:109.0) Gecko/20100101 Firefox/119.0" etag="ucCeYMS9j0zJ6bBRqoGN" version="22.1.2" type="device">
  <diagram name="Page-1" id="d_AT5kZNJndGVS63STpF">
    <mxGraphModel dx="1050" dy="538" grid="1" gridSize="10" guides="1" tooltips="1" connect="1" arrows="1" fold="1" page="1" pageScale="1" pageWidth="850" pageHeight="1100" math="0" shadow="0">
      <root>
        <mxCell id="0" />
        <mxCell id="1" parent="0" />
        <mxCell id="Z3lxXqcb42nXhXT_M9SM-3" value="" style="edgeStyle=orthogonalEdgeStyle;rounded=0;orthogonalLoop=1;jettySize=auto;html=1;" parent="1" source="Z3lxXqcb42nXhXT_M9SM-1" target="Z3lxXqcb42nXhXT_M9SM-2" edge="1">
          <mxGeometry relative="1" as="geometry" />
        </mxCell>
        <mxCell id="Z3lxXqcb42nXhXT_M9SM-1" value="Generate model output for test set, using the same environment as training." style="rounded=1;whiteSpace=wrap;html=1;" parent="1" vertex="1">
          <mxGeometry x="30" y="17.5" width="140" height="70" as="geometry" />
        </mxCell>
        <mxCell id="XAX61Btx03hwgtj56iC7-1" value="" style="edgeStyle=orthogonalEdgeStyle;rounded=0;orthogonalLoop=1;jettySize=auto;html=1;" parent="1" source="Z3lxXqcb42nXhXT_M9SM-2" target="Z3lxXqcb42nXhXT_M9SM-6" edge="1">
          <mxGeometry relative="1" as="geometry" />
        </mxCell>
        <mxCell id="Z3lxXqcb42nXhXT_M9SM-2" value="Preprocess the generated triples by splitting camel case words and replacing repeated spaces with a single space. This is done for both candidate and reference triples. Additional processing is done to ensure triples follow the (S | P | O) format, such as removing extra double quotes to avoid cases of (&quot;S | P | O&quot;). For triples that are comma delimited, they are split and remade in the pipe delimited format. Before comparisons, any literals that were split are reconstructed." style="whiteSpace=wrap;html=1;rounded=1;" parent="1" vertex="1">
          <mxGeometry x="203.75" y="10" width="536.25" height="85" as="geometry" />
        </mxCell>
        <mxCell id="XAX61Btx03hwgtj56iC7-3" value="" style="edgeStyle=orthogonalEdgeStyle;rounded=0;orthogonalLoop=1;jettySize=auto;html=1;" parent="1" source="Z3lxXqcb42nXhXT_M9SM-4" target="Z3lxXqcb42nXhXT_M9SM-8" edge="1">
          <mxGeometry relative="1" as="geometry" />
        </mxCell>
        <mxCell id="Z3lxXqcb42nXhXT_M9SM-4" value="Attempt to match subject to subject, predicate to predicate, and object to object for each candidate and reference pair." style="whiteSpace=wrap;html=1;rounded=1;" parent="1" vertex="1">
          <mxGeometry x="12.5" y="220" width="175" height="60" as="geometry" />
        </mxCell>
        <mxCell id="XAX61Btx03hwgtj56iC7-2" value="" style="edgeStyle=orthogonalEdgeStyle;rounded=0;orthogonalLoop=1;jettySize=auto;html=1;" parent="1" source="Z3lxXqcb42nXhXT_M9SM-6" target="Z3lxXqcb42nXhXT_M9SM-4" edge="1">
          <mxGeometry relative="1" as="geometry">
            <Array as="points">
              <mxPoint x="472" y="200" />
              <mxPoint x="100" y="200" />
            </Array>
          </mxGeometry>
        </mxCell>
        <mxCell id="Z3lxXqcb42nXhXT_M9SM-6" value="For each test set entry, compare subjects, predicates and objects for each candidate generated by the model against each ground truth triple. We do the model may output triples in any order. Matches are made with an ngram method, and we match as much as possible for each position, replacing matches with tags containing the start and end indices of the match." style="whiteSpace=wrap;html=1;rounded=1;" parent="1" vertex="1">
          <mxGeometry x="186.87" y="120" width="570" height="70" as="geometry" />
        </mxCell>
        <mxCell id="Z3lxXqcb42nXhXT_M9SM-11" value="" style="edgeStyle=orthogonalEdgeStyle;rounded=0;orthogonalLoop=1;jettySize=auto;html=1;" parent="1" source="Z3lxXqcb42nXhXT_M9SM-8" target="Z3lxXqcb42nXhXT_M9SM-10" edge="1">
          <mxGeometry relative="1" as="geometry" />
        </mxCell>
        <mxCell id="Z3lxXqcb42nXhXT_M9SM-8" value="If direct matching does not work, try subject to object, then subject to predicate and finally predicate to object." style="whiteSpace=wrap;html=1;rounded=1;" parent="1" vertex="1">
          <mxGeometry x="220" y="220" width="160" height="60" as="geometry" />
        </mxCell>
        <mxCell id="DGit_nAzJsiOUfNEkzI6-5" value="" style="edgeStyle=orthogonalEdgeStyle;rounded=0;orthogonalLoop=1;jettySize=auto;html=1;" edge="1" parent="1" source="Z3lxXqcb42nXhXT_M9SM-10" target="DGit_nAzJsiOUfNEkzI6-4">
          <mxGeometry relative="1" as="geometry">
            <Array as="points">
              <mxPoint x="611" y="345" />
              <mxPoint x="148" y="345" />
            </Array>
          </mxGeometry>
        </mxCell>
        <mxCell id="Z3lxXqcb42nXhXT_M9SM-10" value="Best match is stored and evaluated. For a strict match to be correct, tags and text must exactly match. For an exact match to be correct, text must exactly match. For a partial match, text must exactly match, if only tags match it is partially correct. For a type match, only tags need to match. The tags used in evaluation are SUB (subject), PRED (predicate) and OBJ (object)." style="whiteSpace=wrap;html=1;rounded=1;" parent="1" vertex="1">
          <mxGeometry x="401.88" y="210" width="418.12" height="80" as="geometry" />
        </mxCell>
        <mxCell id="DGit_nAzJsiOUfNEkzI6-2" value="" style="edgeStyle=orthogonalEdgeStyle;rounded=0;orthogonalLoop=1;jettySize=auto;html=1;" edge="1" parent="1" source="Z3lxXqcb42nXhXT_M9SM-12" target="Z3lxXqcb42nXhXT_M9SM-14">
          <mxGeometry relative="1" as="geometry" />
        </mxCell>
        <mxCell id="Z3lxXqcb42nXhXT_M9SM-12" value="Sum across all results for correct, missed, incorrect, partial, spurious and possible. Average precision, recall and F1. Done for overall score, as well as specifically subjects, predicates and objects." style="whiteSpace=wrap;html=1;rounded=1;" parent="1" vertex="1">
          <mxGeometry x="320" y="380" width="210" height="120" as="geometry" />
        </mxCell>
        <mxCell id="Z3lxXqcb42nXhXT_M9SM-14" value="Output all scores to the terminal and a JSON file as defined in command line arguments. Additionally, output a verbose JSON file containing all ground truth and generated triples as well as all scores." style="whiteSpace=wrap;html=1;rounded=1;" parent="1" vertex="1">
          <mxGeometry x="600" y="380" width="176.88" height="120" as="geometry" />
        </mxCell>
        <mxCell id="DGit_nAzJsiOUfNEkzI6-6" value="" style="edgeStyle=orthogonalEdgeStyle;rounded=0;orthogonalLoop=1;jettySize=auto;html=1;" edge="1" parent="1" source="DGit_nAzJsiOUfNEkzI6-4" target="Z3lxXqcb42nXhXT_M9SM-12">
          <mxGeometry relative="1" as="geometry" />
        </mxCell>
        <mxCell id="DGit_nAzJsiOUfNEkzI6-4" value="For each test set entry, match the candidates to references to try and get optimal overall score, using a dynamic programming approach. Sum correct, missed, incorrect, partial, spurious and possible, as well as average precision, recall and F1 and store the results for this test set entry." style="whiteSpace=wrap;html=1;rounded=1;" vertex="1" parent="1">
          <mxGeometry x="12.5" y="390" width="270" height="100" as="geometry" />
        </mxCell>
      </root>
    </mxGraphModel>
  </diagram>
</mxfile>
